<?xml version="1.0" encoding="utf-8"?>
<!-- Generator: Adobe Illustrator 24.0.3, SVG Export Plug-In . SVG Version: 6.00 Build 0)  -->
<!DOCTYPE svg PUBLIC "-//W3C//DTD SVG 1.1//EN" "http://www.w3.org/Graphics/SVG/1.1/DTD/svg11.dtd" [
	<!ENTITY ns_extend "http://ns.adobe.com/Extensibility/1.0/">
	<!ENTITY ns_ai "http://ns.adobe.com/AdobeIllustrator/10.0/">
	<!ENTITY ns_graphs "http://ns.adobe.com/Graphs/1.0/">
	<!ENTITY ns_vars "http://ns.adobe.com/Variables/1.0/">
	<!ENTITY ns_imrep "http://ns.adobe.com/ImageReplacement/1.0/">
	<!ENTITY ns_sfw "http://ns.adobe.com/SaveForWeb/1.0/">
	<!ENTITY ns_custom "http://ns.adobe.com/GenericCustomNamespace/1.0/">
	<!ENTITY ns_adobe_xpath "http://ns.adobe.com/XPath/1.0/">
]>
<svg version="1.1"
	 id="svg2" xmlns:x="&ns_extend;" xmlns:i="&ns_ai;" xmlns:graph="&ns_graphs;" inkscape:version="0.41+cvs" sodipodi:docbase="/home/nicu/Desktop/card_nicu_buculei_01.zip_FILES/cards/ornamental" sodipodi:docname="ornamental_s_a.svg" sodipodi:version="0.32" xmlns:cc="http://web.resource.org/cc/" xmlns:dc="http://purl.org/dc/elements/1.1/" xmlns:inkscape="http://www.inkscape.org/namespaces/inkscape" xmlns:ns1="http://sozi.baierouge.fr" xmlns:rdf="http://www.w3.org/1999/02/22-rdf-syntax-ns#" xmlns:sodipodi="http://inkscape.sourceforge.net/DTD/sodipodi-0.dtd" xmlns:svg="http://www.w3.org/2000/svg"
	 xmlns="http://www.w3.org/2000/svg" xmlns:xlink="http://www.w3.org/1999/xlink" x="0px" y="0px" viewBox="0 0 140 190"
	 style="enable-background:new 0 0 140 190;" xml:space="preserve">
<style type="text/css">
	.st0{fill-opacity:0.498;}
	.st1{fill:#FFFFFF;}
	.st2{fill:#C7891F;}
	.st3{fill:url(#rect1306_1_);}
	.st4{fill-rule:evenodd;clip-rule:evenodd;fill:#9F0000;}
	.st5{fill-rule:evenodd;clip-rule:evenodd;}
</style>
<metadata>
	<rdf:RDF>
		<cc:Work>
			<dc:format>image/svg+xml</dc:format>
			<dc:type  rdf:resource="http://purl.org/dc/dcmitype/StillImage"></dc:type>
			<cc:license  rdf:resource="http://creativecommons.org/licenses/publicdomain/"></cc:license>
			<dc:publisher>
				<cc:Agent  rdf:about="http://openclipart.org/">
					<dc:title>Openclipart</dc:title>
				</cc:Agent>
			</dc:publisher>
			<dc:title>Ornamental deck: Ace of spades</dc:title>
			<dc:date>2009-03-23T13:29:00</dc:date>
			<dc:description>playing card from the &quot;Ornamental&quot; set</dc:description>
			<dc:source>https://openclipart.org/detail/23022/ornamental-deck:-ace-of-spades-by-nicubunu</dc:source>
			<dc:creator>
				<cc:Agent>
					<dc:title>nicubunu</dc:title>
				</cc:Agent>
			</dc:creator>
			<dc:subject>
				<rdf:Bag>
					<rdf:li>card</rdf:li>
					<rdf:li>cards</rdf:li>
					<rdf:li>deck</rdf:li>
					<rdf:li>gambling</rdf:li>
					<rdf:li>game</rdf:li>
					<rdf:li>ornamental deck</rdf:li>
					<rdf:li>play</rdf:li>
					<rdf:li>playing cards</rdf:li>
				</rdf:Bag>
			</dc:subject>
		</cc:Work>
		<cc:License  rdf:about="http://creativecommons.org/licenses/publicdomain/">
			<cc:permits  rdf:resource="http://creativecommons.org/ns#Reproduction"></cc:permits>
			<cc:permits  rdf:resource="http://creativecommons.org/ns#Distribution"></cc:permits>
			<cc:permits  rdf:resource="http://creativecommons.org/ns#DerivativeWorks"></cc:permits>
		</cc:License>
	</rdf:RDF>
	<sfw  xmlns="&ns_sfw;">
		<slices></slices>
		<sliceSourceBounds  bottomLeftOrigin="true" height="189" width="139" x="1" y="0"></sliceSourceBounds>
	</sfw>
</metadata>
<sodipodi:namedview  bordercolor="#666666" borderopacity="1.0" id="base" inkscape:current-layer="svg2" inkscape:cx="70.000000" inkscape:cy="95.000000" inkscape:pageopacity="0.0" inkscape:pageshadow="2" inkscape:window-height="791" inkscape:window-width="1152" inkscape:window-x="0" inkscape:window-y="26" inkscape:zoom="1.0000000" pagecolor="#ffffff">
	</sodipodi:namedview>
<g id="layer1" inkscape:groupmode="layer" inkscape:label="Layer 1">
	<g id="g1344">
		<g id="g5630">
			<path id="rect2070" class="st0" d="M21,5h103c8.9,0,16,7.1,16,16v153c0,8.9-7.1,16-16,16H21c-8.9,0-16-7.1-16-16V21
				C5,12.1,12.1,5,21,5z"/>
			<path id="rect1300" class="st1" d="M17,1h103c8.9,0,16,7.1,16,16v153c0,8.9-7.1,16-16,16H17c-8.9,0-16-7.1-16-16V17
				C1,8.1,8.1,1,17,1z"/>
			<path id="path5624" class="st2" d="M19,3h103c8.9,0,16,7.1,16,16v153c0,8.9-7.1,16-16,16H19c-8.9,0-16-7.1-16-16V19
				C3,10.1,10.1,3,19,3z"/>
			
				<linearGradient id="rect1306_1_" gradientUnits="userSpaceOnUse" x1="6.0028" y1="135.429" x2="113.0028" y2="69.829" gradientTransform="matrix(1 0 0 -1 0 191)">
				<stop  offset="0" style="stop-color:#EBF0D0"/>
				<stop  offset="1" style="stop-color:#FFFFEB"/>
			</linearGradient>
			<path id="rect1306" class="st3" d="M18,2h103c8.9,0,16,7.1,16,16v153c0,8.9-7.1,16-16,16H18c-8.9,0-16-7.1-16-16V18
				C2,9.1,9.1,2,18,2z"/>
		</g>
		<path id="path2869" class="st4" d="M103.5,21c-0.5,0-1,0.1-1.4,0.3c-0.9,0.4-1.7,1.1-2,2.2c-0.2,0.6-0.1,1.4,0.2,2
			s0.9,1.1,1.8,1.1c0.5,0,0.8-0.2,1.2-0.5c0.2-0.2,0.3-0.4,0.3-0.7s-0.2-0.6-0.5-0.8l-0.5,0.8c0.1,0,0,0,0-0.1c0-0.1,0,0,0,0
			c-0.1,0.1-0.5,0.2-0.4,0.2c-0.4,0-0.7-0.2-0.8-0.6s-0.2-0.9-0.1-1.3c0.2-0.8,0.7-1.2,1.4-1.5c0.7-0.3,1.6-0.3,2.2,0
			c2.1,0.8,2.8,3.4,1.9,5.4c-0.8,1.8-2.6,2.8-4.5,2.9l-62.8,0.4v1l62.6-0.4v0.1c0.1,0,0.1-0.1,0.2-0.1h0.3v-0.1
			c2.2-0.2,4.2-1.4,5.1-3.4c1.1-2.5,0.2-5.7-2.6-6.8C104.5,21.1,104,21,103.5,21L103.5,21z M114.9,24c-0.7,0-1.3,0.2-2,0.4
			c-2.1,0.9-3.2,2.9-3.4,5.1h-0.1v0.3c0,0.1-0.1,0.1-0.1,0.2h0.1l0.2,69.1h1l-0.2-69.3c0.1-1.9,1.1-3.7,2.9-4.5
			c2-0.9,4.6-0.2,5.4,1.9c0.3,0.7,0.2,1.6,0,2.2c-0.3,0.7-0.8,1.2-1.5,1.4c-0.4,0.1-0.9,0.1-1.3-0.1s-0.6-0.4-0.6-0.8
			c0,0,0.1-0.3,0.2-0.4c0.1,0,0.1,0,0,0c-0.1,0-0.1-0.1-0.1,0l0.8-0.5c-0.2-0.3-0.4-0.5-0.8-0.5c-0.3,0-0.6,0.2-0.7,0.3
			c-0.3,0.3-0.5,0.7-0.5,1.2c0,0.8,0.5,1.4,1.1,1.8c0.6,0.3,1.4,0.4,2,0.2c1.1-0.3,1.8-1.1,2.2-2c0.2-0.5,0.3-0.9,0.3-1.4
			s-0.1-1-0.2-1.5C119,25,117,24,114.9,24L114.9,24z M29.3,90l0.2,69.3c-0.1,1.9-1.1,3.7-2.9,4.5c-2,0.9-4.6,0.2-5.4-1.9
			c-0.3-0.7-0.2-1.6,0-2.3c0.3-0.7,0.7-1.2,1.5-1.4c0.4-0.1,0.9-0.1,1.3,0.1s0.6,0.4,0.6,0.9c0,0-0.1,0.3-0.2,0.4
			c-0.1,0.1-0.1,0,0,0c0.1,0,0.1,0.1,0.1,0l-0.8,0.5c0.2,0.3,0.4,0.5,0.8,0.5s0.6-0.2,0.7-0.3c0.3-0.3,0.5-0.7,0.5-1.1
			c0-0.8-0.5-1.4-1.1-1.8s-1.4-0.4-2-0.2c-1.1,0.3-1.8,1.1-2.2,2c-0.2,0.5-0.3,0.9-0.3,1.4s0.1,1,0.2,1.5c1,2.7,4.3,3.7,6.8,2.6
			c2-0.9,3.2-2.9,3.4-5.1h0.1v-0.4c0-0.1,0.1-0.1,0.1-0.2h-0.1L30.3,90H29.3z M100.7,157.3l-62.6,0.4v-0.1c-0.1,0-0.1,0.1-0.2,0.1
			h-0.3v0.1c-2.2,0.2-4.2,1.4-5.1,3.4c-1.1,2.5-0.1,5.8,2.6,6.8c0.5,0.2,1,0.2,1.5,0.2c0.5,0,1-0.1,1.4-0.3c0.9-0.4,1.7-1.1,2-2.2
			c0.2-0.6,0.1-1.4-0.2-2s-0.9-1.1-1.8-1.1c-0.5,0-0.8,0.2-1.2,0.5c-0.2,0.2-0.3,0.4-0.3,0.7c0,0.3,0.2,0.6,0.5,0.7l0.5-0.8
			c-0.1,0,0,0,0,0.1c0,0.1,0,0,0,0c0.1-0.1,0.5-0.2,0.4-0.2c0.4,0,0.7,0.2,0.8,0.6s0.2,0.9,0.1,1.3c-0.2,0.8-0.7,1.2-1.4,1.5
			c-0.7,0.3-1.6,0.3-2.2,0c-2.1-0.8-2.8-3.4-1.9-5.4c0.8-1.8,2.6-2.8,4.5-2.9l62.8-0.4V157.3L100.7,157.3z"/>
	</g>
	<g id="g5202" transform="translate(152.04 99.567)">
	</g>
</g>
<g id="g1600" transform="matrix(1 0 0 .40081 -239.33 -10.811)">
	<path id="path1561" sodipodi:nodetypes="cccccccccc" class="st5" d="M260.4,148.4c-4.9,19.5-20,52.8-10.5,63
		c5.8,4.7,8.6-4.9,9.7-11.4h0.2l-3.9,32.3l8.9-0.1c0,0-3.9-31.1-3.9-32.2h0.1c1,5.2,4.5,16.1,8.5,11.9
		C281.3,200.4,264.3,167.5,260.4,148.4z"/>
</g>
<path id="text1481" d="M25.1,36.8h-10l-1.6,5.5H7.1l9.2-30h7.6l9.2,30h-6.4L25.1,36.8 M16.7,31.2h6.8l-3.4-11.9L16.7,31.2"/>
<g id="g19507" transform="matrix(-1 0 0 -.40081 378.02 199.48)">
	<path id="path19509" sodipodi:nodetypes="cccccccccc" class="st5" d="M260.4,148.4c-4.9,19.5-20,52.8-10.5,63
		c5.8,4.7,8.6-4.9,9.7-11.4h0.2l-3.9,32.3l8.9-0.1c0,0-3.9-31.1-3.9-32.2h0.1c1,5.2,4.5,16.1,8.5,11.9
		C281.3,200.4,264.3,167.5,260.4,148.4z"/>
</g>
<path id="text19511" d="M113.6,152.1h10l1.6-5.5h6.4l-9.2,30h-7.6l-9.2-30h6.4L113.6,152.1 M122,157.7h-6.8l3.4,11.9L122,157.7"/>
<path class="st5" d="M69.8,59.1c-10.6,16.8-43,45.4-22.5,54.3c12.5,4.1,18.4-4.3,20.9-9.8h0.5l-8.3,27.8l19.2-0.1
	c0,0-8.3-26.8-8.3-27.8h0.2c2,4.5,9.7,13.8,18.2,10.3C114.6,103.8,78.1,75.5,69.8,59.1z"/>
<rect x="66.2" y="98.1" class="st5" width="0.6" height="4.6"/>
<rect x="68.1" y="98.1" class="st5" width="0.6" height="0.7"/>
<path class="st5" d="M45.1,98.2c0.7,0,1.3,0.2,1.7,0.6c0.4,0.4,0.6,1,0.6,1.7c0,0.7-0.2,1.2-0.6,1.7c-0.4,0.4-1,0.6-1.7,0.6
	c-0.7,0-1.3-0.2-1.7-0.6c-0.4-0.4-0.6-1-0.6-1.7c0-0.7,0.2-1.2,0.6-1.7C43.8,98.4,44.4,98.2,45.1,98.2z"/>
<path class="st5" d="M63.6,98.2c0.3,0,0.6,0,0.8,0.1c0.3,0.1,0.5,0.2,0.8,0.3v0.6c-0.2-0.2-0.5-0.3-0.8-0.4
	c-0.3-0.1-0.5-0.2-0.8-0.2c-0.6,0-1,0.2-1.3,0.5c-0.3,0.3-0.5,0.7-0.5,1.3c0,0.6,0.2,1,0.5,1.3c0.3,0.3,0.7,0.4,1.3,0.4
	c0.3,0,0.6,0,0.8-0.1c0.3-0.1,0.5-0.2,0.8-0.4v0.6c-0.2,0.1-0.5,0.2-0.8,0.3c-0.3,0.1-0.5,0.1-0.8,0.1c-0.8,0-1.4-0.2-1.8-0.6
	c-0.4-0.4-0.7-1-0.7-1.7c0-0.7,0.2-1.3,0.7-1.7C62.2,98.4,62.8,98.2,63.6,98.2L63.6,98.2z"/>
<path class="st5" d="M45.1,98.7c-0.5,0-0.9,0.1-1.2,0.5c-0.3,0.3-0.4,0.8-0.4,1.3c0,0.6,0.1,1,0.4,1.3c0.3,0.3,0.7,0.5,1.2,0.5
	c0.5,0,0.9-0.2,1.2-0.5c0.3-0.3,0.4-0.8,0.4-1.3c0-0.6-0.1-1-0.4-1.3C45.9,98.9,45.6,98.7,45.1,98.7z"/>
<path class="st5" d="M50.2,99.3c0.5,0,0.8,0.2,1.1,0.5c0.3,0.3,0.4,0.7,0.4,1.2c0,0.5-0.2,0.9-0.4,1.2c-0.3,0.3-0.6,0.5-1.1,0.5
	c-0.3,0-0.5-0.1-0.7-0.2c-0.2-0.1-0.4-0.2-0.5-0.4v1.8h-0.6v-4.5H49v0.5c0.1-0.2,0.3-0.3,0.5-0.4C49.7,99.4,49.9,99.3,50.2,99.3z"/>
<path class="st5" d="M54.3,99.3c0.5,0,0.9,0.1,1.2,0.4c0.3,0.3,0.4,0.7,0.4,1.2v0.3h-2.8c0,0.4,0.1,0.7,0.4,0.8
	c0.2,0.2,0.6,0.3,1,0.3c0.2,0,0.5,0,0.7-0.1c0.2-0.1,0.4-0.2,0.7-0.2v0.5c-0.2,0.1-0.5,0.2-0.7,0.2s-0.4,0.1-0.7,0.1
	c-0.6,0-1.1-0.2-1.4-0.5c-0.3-0.3-0.5-0.7-0.5-1.2c0-0.5,0.2-1,0.5-1.3C53.3,99.5,53.8,99.3,54.3,99.3z"/>
<path class="st5" d="M58.8,99.3c0.4,0,0.7,0.1,1,0.3c0.2,0.2,0.3,0.6,0.3,1v2h-0.6v-2c0-0.3,0-0.5-0.2-0.7c-0.1-0.2-0.3-0.2-0.6-0.2
	c-0.3,0-0.6,0.1-0.8,0.3c-0.2,0.2-0.3,0.4-0.3,0.8v1.8H57v-3.3h0.6v0.5c0.1-0.2,0.3-0.3,0.5-0.4C58.3,99.4,58.6,99.3,58.8,99.3z"/>
<path class="st5" d="M71.8,99.3c0.5,0,0.8,0.2,1.1,0.5c0.3,0.3,0.4,0.7,0.4,1.2c0,0.5-0.2,0.9-0.4,1.2c-0.3,0.3-0.6,0.5-1.1,0.5
	c-0.3,0-0.5-0.1-0.7-0.2c-0.2-0.1-0.4-0.2-0.5-0.4v1.8H70v-4.5h0.6v0.5c0.1-0.2,0.3-0.3,0.5-0.4C71.3,99.4,71.5,99.3,71.8,99.3z"/>
<path class="st5" d="M75.7,99.3c0.5,0,0.9,0.1,1.2,0.3c0.3,0.2,0.4,0.6,0.4,1.1v1.9h-0.6v-0.5c-0.1,0.2-0.3,0.3-0.5,0.4
	c-0.2,0.1-0.4,0.2-0.8,0.2c-0.4,0-0.7-0.1-0.9-0.3c-0.2-0.2-0.3-0.4-0.3-0.8c0-0.4,0.2-0.7,0.4-0.8c0.3-0.2,0.7-0.3,1.2-0.3h0.9
	v-0.1c0-0.2-0.1-0.4-0.3-0.6c-0.2-0.1-0.4-0.2-0.8-0.2c-0.2,0-0.4,0-0.6,0.1s-0.4,0.1-0.6,0.2v-0.5c0.2-0.1,0.4-0.2,0.7-0.2
	C75.3,99.3,75.5,99.3,75.7,99.3L75.7,99.3z"/>
<path class="st5" d="M80.5,99.3c0,0,0.1,0,0.1,0c0.1,0,0.1,0,0.2,0v0.5c-0.1,0-0.1,0-0.2-0.1c-0.1,0-0.2,0-0.3,0
	c-0.3,0-0.6,0.1-0.8,0.3c-0.2,0.2-0.3,0.5-0.3,0.8v1.7h-0.6v-3.3h0.6v0.5c0.1-0.2,0.3-0.3,0.5-0.4C79.9,99.4,80.2,99.3,80.5,99.3z"
	/>
<path class="st5" d="M87.8,99.3c0.5,0,0.9,0.1,1.2,0.4c0.3,0.3,0.5,0.7,0.5,1.3s-0.2,0.9-0.5,1.2c-0.3,0.3-0.7,0.5-1.2,0.5
	c-0.5,0-1-0.2-1.3-0.5c-0.3-0.3-0.4-0.7-0.4-1.2c0-0.5,0.1-1,0.4-1.3C86.8,99.5,87.2,99.3,87.8,99.3z"/>
<path class="st5" d="M92.4,99.3c0,0,0.1,0,0.1,0c0.1,0,0.1,0,0.2,0v0.5c-0.1,0-0.2,0-0.2-0.1c-0.1,0-0.2,0-0.2,0
	c-0.3,0-0.6,0.1-0.8,0.3c-0.2,0.2-0.3,0.5-0.3,0.8v1.7h-0.6v-3.3h0.6v0.5c0.1-0.2,0.3-0.3,0.5-0.4C91.8,99.4,92.1,99.3,92.4,99.3z"
	/>
<path class="st5" d="M94.5,99.3c0.3,0,0.5,0,0.7,0.1c0.2,0.1,0.4,0.2,0.5,0.4v-0.5h0.6v2.9c0,0.6-0.1,1-0.4,1.2
	c-0.3,0.3-0.7,0.4-1.3,0.4c-0.2,0-0.4,0-0.6,0c-0.2,0-0.4-0.1-0.6-0.1v-0.5c0.2,0.1,0.4,0.2,0.5,0.2c0.2,0,0.4,0.1,0.6,0.1
	c0.4,0,0.7-0.1,0.9-0.3c0.2-0.2,0.3-0.5,0.3-0.8v-0.3c-0.1,0.2-0.3,0.3-0.5,0.4c-0.2,0.1-0.4,0.1-0.7,0.1c-0.5,0-0.8-0.2-1.1-0.5
	S93,101.5,93,101s0.1-0.9,0.4-1.2C93.7,99.5,94,99.3,94.5,99.3z"/>
<rect x="68.1" y="99.4" class="st5" width="0.6" height="3.3"/>
<path class="st5" d="M50.1,99.8c-0.3,0-0.6,0.1-0.8,0.3c-0.2,0.2-0.3,0.6-0.3,0.9c0,0.4,0.1,0.7,0.3,0.9c0.2,0.2,0.5,0.3,0.8,0.3
	c0.3,0,0.6-0.1,0.8-0.3c0.2-0.2,0.3-0.5,0.3-0.9c0-0.4-0.1-0.7-0.3-0.9C50.6,99.9,50.4,99.8,50.1,99.8z"/>
<path class="st5" d="M54.3,99.8c-0.3,0-0.6,0.1-0.8,0.2c-0.2,0.2-0.3,0.4-0.4,0.7h2.2c0-0.3-0.1-0.5-0.3-0.7
	C54.9,99.9,54.6,99.8,54.3,99.8z"/>
<path class="st5" d="M71.7,99.8c-0.3,0-0.6,0.1-0.8,0.3c-0.2,0.2-0.3,0.6-0.3,0.9c0,0.4,0.1,0.7,0.3,0.9c0.2,0.2,0.5,0.3,0.8,0.3
	s0.6-0.1,0.8-0.3c0.2-0.2,0.3-0.5,0.3-0.9c0-0.4-0.1-0.7-0.3-0.9C72.2,99.9,72,99.8,71.7,99.8z"/>
<path class="st5" d="M87.8,99.8c-0.3,0-0.6,0.1-0.8,0.3c-0.2,0.2-0.3,0.6-0.3,0.9c0,0.4,0.1,0.7,0.3,0.9c0.2,0.2,0.4,0.3,0.8,0.3
	c0.3,0,0.6-0.1,0.8-0.3c0.2-0.2,0.3-0.5,0.3-0.9s-0.1-0.7-0.3-0.9C88.4,99.9,88.1,99.8,87.8,99.8z"/>
<path class="st5" d="M94.7,99.8c-0.3,0-0.6,0.1-0.8,0.3c-0.2,0.2-0.3,0.5-0.3,0.9s0.1,0.7,0.3,0.9c0.2,0.2,0.4,0.3,0.8,0.3
	c0.3,0,0.6-0.1,0.8-0.3c0.2-0.2,0.3-0.5,0.3-0.9s-0.1-0.7-0.3-0.9C95.3,99.9,95,99.8,94.7,99.8z"/>
<path class="st5" d="M76.1,101c-0.5,0-0.8,0.1-1,0.2c-0.2,0.1-0.3,0.3-0.3,0.5c0,0.2,0.1,0.3,0.2,0.5c0.1,0.1,0.3,0.2,0.6,0.2
	c0.3,0,0.6-0.1,0.8-0.3c0.2-0.2,0.3-0.5,0.3-0.8V101L76.1,101L76.1,101z"/>
<rect x="84.2" y="101.9" class="st5" width="0.7" height="0.8"/>
</svg>
